<?xml version="1.0" standalone="no"?>
<!DOCTYPE svg PUBLIC "-//W3C//DTD SVG 20010904//EN"
 "http://www.w3.org/TR/2001/REC-SVG-20010904/DTD/svg10.dtd">
<svg version="1.0" xmlns="http://www.w3.org/2000/svg"
 width="260.000000pt" height="260.000000pt" viewBox="0 0 260.000000 260.000000"
 preserveAspectRatio="xMidYMid meet">
<metadata>
Created by potrace 1.11, written by Peter Selinger 2001-2013
</metadata>
<g transform="translate(0.000000,260.000000) scale(0.100000,-0.100000)"
fill="#000000" stroke="none">
<path d="M0 1300 l0 -1300 1300 0 1300 0 0 283 0 284 -322 6 c-178 4 -519 7
-758 7 -239 0 -640 3 -892 7 -405 5 -455 8 -450 22 9 25 35 51 50 51 8 0 12 6
9 14 -4 10 0 12 14 9 19 -5 123 22 144 37 6 4 22 10 38 14 15 3 27 11 27 16 0
6 8 10 19 10 32 0 81 22 81 36 0 10 13 14 43 14 24 0 52 7 63 15 10 8 27 15
37 15 9 0 17 4 17 9 0 5 18 12 40 16 22 4 40 11 40 16 0 5 10 9 23 9 12 0 31
6 42 14 11 7 52 24 90 36 39 13 74 27 80 32 5 4 17 8 27 8 10 0 18 4 18 9 0 4
27 14 60 21 38 8 60 18 60 26 0 8 9 14 21 14 11 0 33 6 47 14 15 7 67 26 116
41 48 16 94 35 101 42 8 7 21 13 29 13 9 0 35 9 59 19 23 10 57 25 75 32 17 8
32 17 32 20 0 3 20 9 45 12 24 4 63 15 87 26 24 11 53 22 66 26 12 3 22 11 22
16 0 5 8 9 17 9 27 0 157 43 165 54 4 5 5 13 2 17 -2 4 0 10 6 14 5 3 10 1 10
-4 0 -6 5 -11 10 -11 6 0 65 -32 133 -71 67 -39 175 -98 240 -130 l117 -59 0
735 0 735 -1300 0 -1300 0 0 -1300z m1257 1018 c62 -38 81 -129 43 -201 l-21
-38 30 -37 c33 -42 186 -191 246 -240 22 -18 36 -31 30 -30 -13 3 -55 -24 -55
-35 0 -4 5 -5 12 -1 7 4 8 3 4 -5 -4 -6 -12 -9 -17 -6 -10 7 -7 41 6 52 4 5 5
2 1 -4 -4 -7 -3 -13 3 -13 15 0 21 14 11 29 -6 11 -18 9 -61 -13 -29 -14 -68
-26 -87 -26 -30 0 -33 -2 -22 -15 11 -13 8 -15 -14 -15 -15 0 -34 -7 -42 -15
-9 -8 -22 -15 -30 -15 -8 0 -14 7 -14 15 0 9 9 15 23 15 19 1 20 2 5 11 -14 8
-25 1 -57 -33 -28 -31 -48 -44 -70 -45 -17 -1 -51 -14 -74 -28 -24 -14 -54
-25 -66 -25 -12 0 -35 -7 -51 -15 -17 -9 -30 -11 -30 -5 0 5 -5 10 -11 10 -6
0 -8 -7 -5 -16 5 -13 0 -16 -33 -12 -22 2 -37 0 -35 -4 5 -7 -36 -29 -79 -42
-10 -3 -25 -19 -35 -36 -9 -16 -20 -30 -24 -30 -12 0 4 34 24 51 10 9 18 22
18 29 0 16 60 122 74 132 6 4 8 8 4 8 -4 0 8 24 27 54 19 30 93 153 165 275
71 122 140 235 152 251 21 29 20 49 -1 36 -5 -4 -92 -130 -193 -281 -136 -203
-188 -275 -205 -278 -17 -3 -21 -1 -13 8 5 6 7 15 4 18 -4 4 -19 -10 -33 -31
-43 -59 -46 -66 -29 -60 8 4 15 0 15 -7 0 -10 -5 -11 -18 -4 -15 8 -20 5 -25
-15 -3 -14 -13 -27 -22 -31 -13 -5 -13 -8 -4 -14 10 -6 10 -10 -1 -19 -11 -9
-13 -8 -12 7 2 30 116 193 132 187 7 -3 13 -1 13 4 0 6 -5 10 -12 10 -6 0 -8
3 -4 7 4 5 14 0 21 -10 7 -11 16 -14 19 -8 4 5 -3 16 -13 23 -20 14 -18 17 33
94 98 147 223 360 204 348 -6 -4 -1 11 11 33 13 22 35 47 49 56 38 23 98 21
139 -5z m-467 -647 c-5 -11 -15 -23 -22 -27 -7 -5 -8 -2 -3 7 21 37 44 55 25
20z m915 9 c3 -5 1 -10 -4 -10 -6 0 -11 5 -11 10 0 6 2 10 4 10 3 0 8 -4 11
-10z m-961 -75 c-9 -14 -20 -25 -25 -25 -5 0 1 11 13 25 12 14 23 25 25 25 2
0 -4 -11 -13 -25z m1041 5 c3 -6 -1 -7 -9 -4 -18 7 -21 14 -7 14 6 0 13 -4 16
-10z m-1125 -75 c14 -19 14 -19 -2 -6 -10 7 -18 18 -18 24 0 6 1 8 3 6 1 -2 9
-13 17 -24z m1201 2 c-10 -9 -11 -8 -5 6 3 10 9 15 12 12 3 -3 0 -11 -7 -18z
m-1264 -72 c0 -8 -4 -12 -9 -9 -5 3 -6 10 -3 15 9 13 12 11 12 -6z m-17 -25
c0 -5 -5 -10 -11 -10 -5 0 -7 5 -4 10 3 6 8 10 11 10 2 0 4 -4 4 -10z m1466
-20 c0 -11 -6 -20 -13 -20 -11 0 -11 5 -3 20 6 11 12 20 13 20 2 0 3 -9 3 -20z
m-1476 -17 c0 -14 -2 -15 -9 -4 -7 11 -11 10 -20 -7 -14 -26 -14 -45 -1 -37 6
4 10 3 9 -2 -4 -25 4 -25 27 2 20 24 19 20 -6 -17 -17 -27 -34 -48 -37 -48 -3
0 0 7 7 15 10 13 10 19 -4 33 -20 23 -20 32 0 60 18 26 34 29 34 5z m50 1 c0
-8 -19 -13 -24 -6 -3 5 1 9 9 9 8 0 15 -2 15 -3z m-133 -146 c-3 -8 -6 -5 -6
6 -1 11 2 17 5 13 3 -3 4 -12 1 -19z m-70 -67 c0 -11 -6 -19 -12 -18 -5 1 -10
-8 -9 -20 0 -13 -2 -21 -4 -18 -3 3 -17 -5 -30 -17 -19 -17 -15 -8 14 34 21
32 40 58 41 58 1 0 1 -9 0 -19z m1 -88 c-32 -47 -34 -48 -44 -31 -4 6 -3 8 3
5 9 -6 50 51 46 64 -1 3 4 6 11 6 8 0 2 -16 -16 -44z m-144 -130 c-5 -17 -5
-17 9 0 13 16 15 16 21 2 3 -9 2 -13 -4 -10 -6 3 -13 -1 -16 -10 -4 -11 -9
-13 -13 -6 -7 11 -71 -70 -71 -89 0 -6 -5 -10 -10 -10 -12 0 -12 0 44 83 41
60 49 68 40 40z m14 -73 c-16 -25 -22 -25 -39 -2 -12 15 -12 16 2 4 13 -10 19
-9 29 3 18 21 22 19 8 -5z m-28 -46 c0 -8 -19 -13 -24 -6 -3 5 1 9 9 9 8 0 15
-2 15 -3z m-20 -29 c0 -12 -19 -12 -23 0 -4 9 -1 12 9 8 7 -3 14 -7 14 -8z
m-30 -40 c-7 -8 -17 -15 -23 -15 -6 0 -2 7 9 15 25 19 30 19 14 0z m-45 -55
c3 -5 1 -10 -4 -10 -6 0 -11 5 -11 10 0 6 2 10 4 10 3 0 8 -4 11 -10z m-62
-17 c-5 -12 -3 -14 8 -8 8 5 11 5 6 -1 -5 -5 -12 -8 -15 -7 -4 1 -13 -4 -21
-10 -9 -8 -8 -2 3 16 21 31 28 35 19 10z m37 -40 c0 -5 -10 -19 -21 -33 l-21
-25 18 33 c18 32 24 38 24 25z m-66 -11 c3 -5 -1 -9 -9 -9 -8 0 -12 4 -9 9 3
4 7 8 9 8 2 0 6 -4 9 -8z m-26 -67 c-5 -41 -4 -44 11 -33 15 12 15 11 0 -7 -9
-11 -19 -27 -23 -35 -3 -8 -4 7 -1 34 3 27 5 57 5 67 0 11 3 19 6 19 4 0 4
-20 2 -45z m52 11 c0 -2 -6 -9 -14 -15 -11 -9 -16 -9 -22 0 -4 7 -3 9 4 5 6
-3 13 -2 17 4 6 10 15 14 15 6z"/>
<path d="M1473 1823 c-21 -7 -15 -19 12 -21 15 -1 25 3 25 11 0 14 -14 17 -37
10z"/>
</g>
</svg>
